<svg version="1.1" xmlns="http://www.w3.org/2000/svg" xmlns:xlink="http://www.w3.org/1999/xlink" width="48" height="48"><defs><linearGradient x1="12.76676" y1="17.87278" x2="59.62327" y2="54.51725" gradientUnits="userSpaceOnUse" id="color-1"><stop offset="0.31" stop-color="#000000" stop-opacity="0.24"></stop><stop offset="1" stop-color="#000000" stop-opacity="0"></stop></linearGradient><filter id="dropshadow-base"><feColorMatrix type="matrix" values="0 0 0 0 0  0 0 0 0 0  0 0 0 0 0  0 0 0 .8 0"></feColorMatrix> <feOffset dx="0" dy="1"></feOffset> <feGaussianBlur stdDeviation="1"></feGaussianBlur> <feComposite in="SourceGraphic"></feComposite></filter><filter id="dropshadow-banner" x="-10%" y="-10%" width="120%" height="130%"><feColorMatrix type="matrix" values="0 0 0 0 0  0 0 0 0 0  0 0 0 0 0  0 0 0 .4 0"></feColorMatrix> <feOffset dx="0" dy="1"></feOffset> <feGaussianBlur stdDeviation="0.5"></feGaussianBlur> <feComposite in="SourceGraphic"></feComposite></filter></defs><g fill="none" fill-rule="nonzero" stroke="none" stroke-width="none" stroke-linecap="butt" stroke-linejoin="miter" stroke-miterlimit="10" stroke-dasharray="" stroke-dashoffset="0" font-family="none" font-weight="none" font-size="none" text-anchor="none" style="mix-blend-mode: normal"><path d="M2,24c0,-12.15026 9.84974,-22 22,-22c12.15026,0 22,9.84974 22,22c0,12.15026 -9.84974,22 -22,22c-12.15026,0 -22,-9.84974 -22,-22z" id="base 1 5" fill="#b71c1c" stroke-width="1"></path><path d="M13.36672,29.52727c-0.37019,-0.37019 -0.59996,-0.88079 -0.59996,-1.44245c0,-1.12333 0.91908,-2.04241 2.04241,-2.04241c0.18382,0 0.35742,0.02042 0.52082,0.07149l4.65669,-4.64648c-0.05106,-0.16339 -0.07149,-0.34721 -0.07149,-0.53103c0,-1.12333 0.91908,-2.04241 2.04241,-2.04241c0.56166,0 1.07226,0.22977 1.44245,0.59996l4.3858,4.3858l3.43407,-3.44374c-0.05106,-0.16339 -0.07149,-0.337 -0.07149,-0.52082c0,-1.12333 0.91908,-2.04241 2.04241,-2.04241c0.56166,0 1.07226,0.22977 1.44245,0.59996l0,0l10.74441,10.74441c-1.93573,7.95954 -8.20101,14.22482 -16.16055,16.16055z" fill="url(#color-1)" stroke-width="1"></path><path transform="translate(-2.95981,-2.95981) scale(1.12333,1.12333)" d="M34,20.36364c0,1 -0.81818,1.81818 -1.81818,1.81818c-0.16364,0 -0.31818,-0.01818 -0.46364,-0.06364l-3.23636,3.22727c0.04545,0.14545 0.06364,0.30909 0.06364,0.47273c0,1 -0.81818,1.81818 -1.81818,1.81818c-1,0 -1.81818,-0.81818 -1.81818,-1.81818c0,-0.16364 0.01818,-0.32727 0.06364,-0.47273l-2.31818,-2.31818c-0.14545,0.04545 -0.30909,0.06364 -0.47273,0.06364c-0.16364,0 -0.32727,-0.01818 -0.47273,-0.06364l-4.13636,4.14545c0.04545,0.14545 0.06364,0.3 0.06364,0.46364c0,1 -0.81818,1.81818 -1.81818,1.81818c-1,0 -1.81818,-0.81818 -1.81818,-1.81818c0,-1 0.81818,-1.81818 1.81818,-1.81818c0.16364,0 0.31818,0.01818 0.46364,0.06364l4.14545,-4.13636c-0.04545,-0.14545 -0.06364,-0.30909 -0.06364,-0.47273c0,-1 0.81818,-1.81818 1.81818,-1.81818c1,0 1.81818,0.81818 1.81818,1.81818c0,0.16364 -0.01818,0.32727 -0.06364,0.47273l2.31818,2.31818c0.14545,-0.04545 0.30909,-0.06364 0.47273,-0.06364c0.16364,0 0.32727,0.01818 0.47273,0.06364l3.22727,-3.23636c-0.04545,-0.14545 -0.06364,-0.3 -0.06364,-0.46364c0,-1 0.81818,-1.81818 1.81818,-1.81818c1,0 1.81818,0.81818 1.81818,1.81818z" fill="none" stroke-width="0"></path><path d="M35.23325,19.91518c0,1.12333 -0.91908,2.04241 -2.04241,2.04241c-0.18382,0 -0.35742,-0.02042 -0.52081,-0.07148l-3.63549,3.62528c0.05106,0.16339 0.07148,0.34721 0.07148,0.53103c0,1.12333 -0.91908,2.04241 -2.04241,2.04241c-1.12333,0 -2.04241,-0.91908 -2.04241,-2.04241c0,-0.18382 0.02042,-0.36763 0.07148,-0.53103l-2.60407,-2.60407c-0.16339,0.05106 -0.34721,0.07148 -0.53103,0.07148c-0.18382,0 -0.36763,-0.02042 -0.53103,-0.07148l-4.64648,4.65669c0.05106,0.16339 0.07148,0.337 0.07148,0.52081c0,1.12333 -0.91908,2.04241 -2.04241,2.04241c-1.12333,0 -2.04241,-0.91908 -2.04241,-2.04241c0,-1.12333 0.91908,-2.04241 2.04241,-2.04241c0.18382,0 0.35742,0.02042 0.52081,0.07148l4.65669,-4.64648c-0.05106,-0.16339 -0.07148,-0.34721 -0.07148,-0.53103c0,-1.12333 0.91908,-2.04241 2.04241,-2.04241c1.12333,0 2.04241,0.91908 2.04241,2.04241c0,0.18382 -0.02042,0.36763 -0.07148,0.53103l2.60407,2.60407c0.16339,-0.05106 0.34721,-0.07148 0.53103,-0.07148c0.18382,0 0.36763,0.02042 0.53103,0.07148l3.62528,-3.63549c-0.05106,-0.16339 -0.07148,-0.337 -0.07148,-0.52081c0,-1.12333 0.91908,-2.04241 2.04241,-2.04241c1.12333,0 2.04241,0.91908 2.04241,2.04241z" fill="#ffffff" stroke-width="0"></path><path d="M2,24c0,-12.15026 9.84974,-22 22,-22c12.15026,0 22,9.84974 22,22c0,12.15026 -9.84974,22 -22,22c-12.15026,0 -22,-9.84974 -22,-22z" id="base 1 1 1" fill="none" stroke-width="1"></path><g fill="#000000" stroke-width="1" font-family="Roboto, sans-serif" font-weight="400" font-size="14" text-anchor="start"></g><rect x="2" y="2" width="44" height="22" fill="none" stroke-width="1"></rect><path d="M2,24v-22h44v22z" fill="none" stroke-width="1"></path><path d="M2,24v-22h44v22z" fill="none" stroke-width="1"></path><path d="M2,24v-22h44v22z" fill="none" stroke-width="1"></path><path d="M2,24v-22h44v22z" fill="none" stroke-width="1"></path></g></svg>